<?xml version="1.0" encoding="UTF-8" standalone="no"?><!-- Generator: Gravit.io --><svg xmlns="http://www.w3.org/2000/svg" xmlns:xlink="http://www.w3.org/1999/xlink" style="isolation:isolate" viewBox="893 145.064 224.943 224.936" width="224.943pt" height="224.936pt"><g><g><path d=" M 1004.437 167.07 L 1007.166 167.07 L 1000.732 173.505 L 1007.303 180.078 C 1009.789 182.564 1013.824 182.564 1016.31 180.078 L 1018.239 178.145 L 1018.239 187.24 L 1027.53 187.24 C 1031.045 187.24 1033.898 184.389 1033.898 180.871 L 1033.898 178.146 L 1040.332 184.577 L 1046.901 178.011 C 1049.388 175.52 1049.388 171.487 1046.897 168.998 L 1045.895 167.993 C 1042.811 166.6 1039.648 165.361 1036.406 164.284 C 1034.529 168.121 1030.629 170.784 1026.07 170.784 C 1019.86 170.784 1014.833 165.871 1014.575 159.722 C 1011.574 159.446 1008.54 159.287 1005.471 159.287 C 1002.977 159.287 1000.515 159.41 998.069 159.592 L 998.069 160.706 C 998.064 164.222 1000.923 167.074 1004.437 167.07 Z " fill="rgb(53,74,94)"/></g><g><path d=" M 1016.931 254.974 L 1024.2 251.856 L 1024.2 251.819 L 1016.931 248.699 L 1016.931 246.626 L 1026.336 250.936 L 1026.336 252.738 L 1016.931 257.049 L 1016.931 254.974 Z  M 1010.471 254.948 L 1013.811 243.628 L 1015.792 243.628 L 1011.69 257.521 C 1012.084 258.177 1012.521 258.71 1013.04 259.057 C 1014.584 260.085 1016.855 260.304 1020.219 260.248 C 1023.028 260.198 1026.079 260.298 1027.349 259.081 C 1028.417 258.057 1029.459 254.892 1030.367 252.032 C 1031.604 248.135 1032.201 245.776 1030.911 244.593 C 1029.362 243.172 1025.273 242.938 1020.44 242.875 C 1015.613 242.808 1009.249 244.234 1008.409 246.134 C 1007.769 247.566 1008.777 250.689 1009.726 253.068 C 1009.986 253.718 1010.229 254.349 1010.471 254.948 Z " fill="rgb(53,74,94)"/></g><g><path d=" M 969.503 245.831 C 969.369 245.049 969.247 244.262 969.136 243.476 C 969.247 244.262 969.369 245.049 969.503 245.831 Z  M 969.552 246.104 C 969.551 246.098 969.549 246.091 969.549 246.085 C 969.549 246.091 969.551 246.098 969.552 246.104 Z  M 972.255 242.005 C 974.569 241.377 981.618 239.241 992.479 240.835 C 1001.525 242.158 999.244 245.162 1002.961 245.299 L 1003.527 245.299 C 1007.247 245.162 1004.965 242.158 1014.009 240.835 C 1024.873 239.241 1031.922 241.377 1034.238 242.005 C 1036.553 242.631 1036.746 242.124 1036.742 243.42 C 1036.735 244.715 1036.855 245.763 1035.735 245.763 C 1034.614 245.763 1034.614 245.763 1032.862 251.25 C 1030.762 257.801 1030.203 259.646 1028.163 261.176 C 1025.709 263.02 1015.35 263.016 1011.999 261 C 1007.803 258.475 1008.363 249.023 1003.326 248.875 L 1003.169 248.875 C 998.127 249.023 998.679 258.475 994.49 261 C 991.139 263.016 980.784 263.02 978.328 261.176 C 976.289 259.646 975.729 257.801 973.634 251.25 C 971.878 245.763 971.878 245.763 970.758 245.763 C 969.637 245.763 969.756 244.715 969.75 243.42 C 969.742 242.124 969.938 242.631 972.255 242.005 Z  M 1037.866 244.484 C 1037.844 244.652 1037.818 244.819 1037.799 244.987 C 1037.818 244.819 1037.844 244.652 1037.866 244.484 Z  M 1038.017 243.171 C 1037.984 243.452 1037.954 243.732 1037.92 244.013 C 1037.954 243.732 1037.984 243.452 1038.017 243.171 Z  M 1038.067 242.668 C 1038.067 242.658 1038.067 242.648 1038.071 242.638 C 1038.067 242.648 1038.067 242.658 1038.067 242.668 C 1038.067 242.681 1038.067 242.698 1038.063 242.706 C 1038.063 242.713 1038.058 242.721 1038.058 242.729 C 1038.059 242.709 1038.064 242.688 1038.067 242.668 Z  M 959.032 231.659 C 959.028 237.209 963.437 241.699 968.931 241.899 C 968.942 241.982 968.949 242.065 968.959 242.149 L 968.044 242.106 C 966.373 242.521 965.603 245.6 965.829 249.827 L 963.333 252.327 L 966.658 255.651 C 966.741 256.017 966.822 256.384 966.915 256.754 C 968.676 263.804 971.907 269.063 974.342 269.126 C 975.845 277.422 978.312 285.086 982.544 289.312 C 992.997 299.765 972.088 310.219 972.088 310.219 C 972.088 310.219 971.63 310.403 970.899 310.702 C 980.177 318.09 991.379 322.422 1003.449 322.422 C 1015.522 322.422 1026.723 318.09 1036.005 310.702 C 1035.272 310.403 1034.814 310.219 1034.814 310.219 C 1034.814 310.219 1013.908 299.765 1024.361 289.312 C 1028.587 285.086 1031.054 277.422 1032.555 269.126 C 1034.998 269.063 1038.227 263.804 1039.985 256.754 C 1040.032 256.575 1040.065 256.398 1040.111 256.22 C 1040.643 254.915 1040.881 253.527 1040.855 252.141 C 1041.545 246.756 1040.827 242.593 1038.865 242.106 L 1038.121 242.137 C 1038.125 242.069 1038.13 242.003 1038.138 241.936 L 1049.435 241.936 L 1049.426 226.942 C 1049.426 221.269 1044.824 216.661 1039.144 216.657 L 1034.747 216.657 L 1045.128 206.274 L 1034.521 195.667 C 1030.511 191.657 1023.997 191.657 1019.979 195.667 L 1018.051 197.594 C 1017.672 197.629 1017.276 197.666 1016.872 197.706 L 1016.872 184.094 L 1001.877 184.094 C 996.201 184.094 991.592 188.702 991.592 194.38 L 991.592 198.791 L 981.205 188.396 L 970.602 199.003 C 966.588 203.018 966.588 209.526 970.602 213.546 L 973.72 216.661 L 959.028 216.661 L 959.032 231.659 Z " fill="rgb(53,74,94)"/></g><g><path d=" M 1038.068 242.668 C 1038.064 242.688 1038.06 242.708 1038.059 242.728 C 1038.059 242.721 1038.063 242.714 1038.063 242.705 C 1038.068 242.698 1038.068 242.681 1038.068 242.668 Z " fill="rgb(53,74,94)"/></g><g><path d=" M 984.274 250.919 L 992.632 247.034 L 992.632 248.883 L 986.312 251.652 L 986.312 251.685 L 992.632 254.453 L 992.632 256.301 L 984.274 252.415 L 984.274 250.919 Z  M 979.141 259.081 C 980.413 260.298 983.461 260.197 986.272 260.247 C 989.64 260.304 991.906 260.085 993.449 259.057 C 994.905 258.086 995.716 255.709 996.765 253.069 C 997.714 250.69 998.719 247.566 998.083 246.134 C 997.241 244.234 990.877 242.809 986.051 242.874 C 981.218 242.937 977.134 243.171 975.583 244.593 C 974.288 245.777 974.887 248.135 976.125 252.031 C 977.034 254.892 978.075 258.057 979.141 259.081 Z " fill="rgb(53,74,94)"/></g><g><path d=" M 1039.255 315.004 C 1028.604 323.492 1016.1 327.981 1003.108 327.981 C 990.121 327.981 977.616 323.492 966.963 315.004 L 964.488 313.032 C 956.637 316.373 944.119 321.953 935.866 326.86 C 953.656 344.721 978.272 355.778 1005.47 355.778 C 1031.744 355.778 1055.588 345.443 1073.215 328.645 C 1065.289 323.366 1050.552 316.786 1041.728 313.032 L 1039.255 315.004 Z " fill="rgb(0,159,227)"/></g><g><path d=" M 975.583 244.593 C 977.134 243.171 981.22 242.937 986.051 242.874 C 990.878 242.809 997.241 244.234 998.082 246.134 C 998.719 247.566 997.714 250.69 996.765 253.069 C 995.715 255.709 994.905 258.086 993.449 259.057 C 991.906 260.085 989.639 260.304 986.272 260.247 C 983.46 260.197 980.413 260.298 979.141 259.081 C 978.075 258.057 977.034 254.892 976.124 252.031 C 974.887 248.135 974.288 245.777 975.583 244.593 Z  M 1008.409 246.134 C 1009.249 244.234 1015.613 242.809 1020.44 242.874 C 1025.272 242.937 1029.362 243.171 1030.912 244.593 C 1032.201 245.777 1031.604 248.135 1030.367 252.031 C 1029.459 254.892 1028.417 258.057 1027.349 259.081 C 1026.079 260.298 1023.028 260.197 1020.22 260.247 C 1016.855 260.304 1014.584 260.085 1013.04 259.057 C 1012.521 258.709 1012.085 258.175 1011.69 257.52 L 1011.598 257.831 L 1009.62 257.831 L 1010.471 254.948 C 1010.229 254.348 1009.986 253.716 1009.726 253.069 C 1008.777 250.69 1007.769 247.566 1008.409 246.134 Z  M 970.758 245.763 C 971.879 245.763 971.879 245.763 973.634 251.25 C 975.73 257.802 976.29 259.645 978.328 261.175 C 980.783 263.02 991.139 263.016 994.491 261 C 998.68 258.475 998.128 249.023 1003.169 248.875 L 1003.324 248.875 C 1008.364 249.023 1007.804 258.475 1011.999 261 C 1015.351 263.016 1025.71 263.02 1028.163 261.175 C 1030.203 259.645 1030.762 257.802 1032.862 251.25 C 1034.614 245.763 1034.614 245.763 1035.733 245.763 C 1036.855 245.763 1036.736 244.714 1036.741 243.42 C 1036.746 242.124 1036.553 242.631 1034.238 242.006 C 1031.922 241.379 1024.873 239.241 1014.009 240.834 C 1004.963 242.158 1007.247 245.162 1003.527 245.301 L 1002.962 245.301 C 999.244 245.162 1001.525 242.158 992.479 240.834 C 981.619 239.241 974.569 241.379 972.255 242.006 C 969.939 242.631 969.742 242.124 969.75 243.42 C 969.756 244.714 969.637 245.763 970.758 245.763 Z " fill="rgb(255,255,255)"/></g><g><path d=" M 992.632 254.452 L 986.312 251.685 L 986.312 251.651 L 992.632 248.883 L 992.632 247.035 L 984.273 250.918 L 984.273 252.414 L 992.632 256.3 L 992.632 254.452 Z " fill="rgb(255,255,255)"/></g><g><path d=" M 1013.811 243.628 L 1010.47 254.949 C 1010.862 255.916 1011.25 256.795 1011.69 257.52 L 1015.794 243.628 L 1013.811 243.628 Z " fill="rgb(255,255,255)"/></g><g><path d=" M 1026.336 250.936 L 1016.93 246.626 L 1016.93 248.699 L 1024.199 251.819 L 1024.199 251.856 L 1016.93 254.973 L 1016.93 257.049 L 1026.336 252.738 L 1026.336 250.936 Z " fill="rgb(255,255,255)"/></g><g><path d=" M 1098.908 208.576 L 1107.231 200.256 L 1080.829 173.868 C 1074.903 167.933 1066.775 165.556 1059.057 166.674 C 1075.928 176.645 1089.772 191.177 1098.908 208.576 Z " fill="rgb(53,74,94)"/></g><g><path d=" M 1005.47 152.044 C 1016.422 152.044 1026.986 153.715 1036.917 156.813 L 1036.917 145.064 L 999.612 145.064 C 991.225 145.064 983.803 149.12 979.137 155.357 C 987.555 153.196 996.381 152.044 1005.47 152.044 Z " fill="rgb(53,74,94)"/></g><g><path d=" M 1110.96 257.532 C 1110.96 268.485 1109.289 279.048 1106.19 288.982 L 1117.943 288.982 L 1117.922 251.673 C 1117.922 243.307 1113.876 235.892 1107.65 231.222 C 1109.811 239.632 1110.96 248.448 1110.96 257.532 Z " fill="rgb(53,74,94)"/></g><g><path d=" M 956.502 164.105 L 948.171 155.774 L 921.797 182.164 C 915.85 188.105 913.47 196.242 914.604 203.969 C 924.572 187.094 939.102 173.245 956.502 164.105 Z " fill="rgb(53,74,94)"/></g><g><path d=" M 1005.47 363.02 C 994.52 363.02 983.957 361.349 974.028 358.25 L 974.028 370 L 1011.349 370 C 1019.726 370 1027.151 365.944 1031.818 359.701 C 1023.398 361.867 1014.567 363.02 1005.47 363.02 Z " fill="rgb(53,74,94)"/></g><g><path d=" M 1054.431 350.965 L 1062.774 359.303 L 1089.155 332.922 C 1095.098 326.974 1097.473 318.828 1096.339 311.099 C 1086.367 327.975 1071.838 341.827 1054.431 350.965 Z " fill="rgb(53,74,94)"/></g><g><path d=" M 912.042 306.496 L 903.709 314.833 L 930.1 341.225 C 936.04 347.171 944.195 349.546 951.926 348.413 C 935.042 338.44 921.185 323.906 912.042 306.496 Z " fill="rgb(53,74,94)"/></g><g><path d=" M 899.984 257.532 C 899.984 246.583 901.655 236.026 904.749 226.095 L 893 226.095 L 893.007 263.414 C 893.003 271.803 897.065 279.226 903.302 283.888 C 901.136 275.463 899.984 266.632 899.984 257.532 Z " fill="rgb(53,74,94)"/></g><g><path d=" M 1005.47 162.498 C 953.068 162.498 910.436 205.13 910.436 257.532 C 910.436 309.933 953.068 352.567 1005.47 352.567 C 1057.872 352.567 1100.505 309.933 1100.505 257.532 C 1100.505 205.13 1057.872 162.498 1005.47 162.498 Z  M 1005.47 358.988 C 949.526 358.988 904.013 313.476 904.013 257.532 C 904.013 201.589 949.526 156.075 1005.47 156.075 C 1061.415 156.075 1106.927 201.589 1106.927 257.532 C 1106.927 313.476 1061.415 358.988 1005.47 358.988 Z " fill="rgb(0,159,227)"/></g></g></svg>